<svg width="20" height="20" viewBox="0 0 20 20" fill="none" xmlns="http://www.w3.org/2000/svg">
<path d="M10.2442 4.41069C10.5493 4.1056 11.0318 4.08677 11.3591 4.35373L11.4225 4.41069L16.4225 9.41067L16.4795 9.47417C16.7465 9.8015 16.7276 10.284 16.4225 10.5891L11.4225 15.5891C11.0971 15.9145 10.5696 15.9145 10.2442 15.5891C9.91879 15.2637 9.91879 14.7362 10.2442 14.4107L13.8216 10.8332H4.16671C3.70647 10.8332 3.33337 10.4601 3.33337 9.99992C3.33337 9.53967 3.70647 9.16658 4.16671 9.16658H13.8216L10.2442 5.58908L10.1872 5.52561C9.92029 5.19829 9.93912 4.71579 10.2442 4.41069Z" fill="black"/>
</svg>
